# xmcd CD database file
#
# Track frame offsets:
# 150
# 13520
# 27697
# 42950
# 57025
# 71390
# 83917
# 97575
# 110975
# 125227
# 137940
# 151545
# 166872
# 181470
# 194607
# 207537
# 221960
# 234797
# 249382
# 261817
# 276170
# 289132
# 301370
# 313275
# 325687
#
# Disc length: 4511 seconds
# Revision: 8
# Processed by: cddbd v1.5.2PL0 Copyright (c) Steve Scherf et al.
# Submitted via: MusicBin 0.4
#
DISCID=72119d19
DTITLE=Various Artist - Classic Country Music: A Smithsonian Collection V
DTITLE=olume 1
DYEAR=1991
DGENRE=Country
TTITLE0=Gid Tanner and his Skillet Lickers - Soldier's Joy
TTITLE1=Uncle Dave Macon and his Fruit Jar Drinkers - Jordan is a 
TTITLE1=Hard Road to Travel
TTITLE2=Bradley Kincaid - Barbara Allen
TTITLE3=Vernon Dalhart - The Prisoner's Song
TTITLE4=Carter Family - Wildwood Flower
TTITLE5=Jimmie Rodgers - Waiting for a Train
TTITLE6=Jimmie Rodgers - Mule Skinner Blues (Blue Yodel No. 8)
TTITLE7=Riley Puckett - Ragged But Right
TTITLE8=Carter Family - Can the Circle Be Unbroken
TTITLE9=Gene Autry and Jimmy Long - Silver Haired Daddy of Mine
TTITLE10=Shelton Brothers - Just Because
TTITLE11=Milton Brown and his Brownies - St. Louis Blues
TTITLE12=W. Lee O'Daniel and his Light Crust Doughboys with Leon H
TTITLE12=uff - My Mary
TTITLE13=Roy Acuff and his Crazy Tennesseeans - Great Speckled Bir
TTITLE13=d
TTITLE14=Bill Boyd and his Cowboy Ramblers - Under the Double Eagl
TTITLE14=e
TTITLE15=Patsy Montana and the Prairie Ramblers - I Want to Be a C
TTITLE15=owboy's Sweetheart
TTITLE16=Gene Autry - South of the Border
TTITLE17=Sons of the Pioneers - Tumbling Tumbleweeds
TTITLE18=Sons of the Pioneers - Cool Water
TTITLE19=Tex Ritter - Rye Whiskey
TTITLE20=Bob Wills and his Texas Playboys - Steel Guitar Rag
TTITLE21=Bob Wills and his Texas Playboys - New San Antonio Rose
TTITLE22=Ernest Tubb - Walking the Floor Over You
TTITLE23=Ted Daffan's Texans - Born to Lose
TTITLE24=Jimmie Davis - You Are My Sunshine
EXTD=
EXTT0=\nYEAR: 1929
EXTT1=\nYEAR: 1927
EXTT2=\nYEAR: 1928
EXTT3=\nYEAR: 1925
EXTT4=\nYEAR: 1928
EXTT5=\nYEAR: 1928
EXTT6=\nYEAR: 1930
EXTT7=\nYEAR: 1934
EXTT8=\nYEAR: 1935
EXTT9=\nYEAR: 1932
EXTT10=\nYEAR: 1935
EXTT11=\nGENRE: Western Swing\nYEAR: 1946
EXTT12=\nYEAR: 1934
EXTT13=\nYEAR: 1936
EXTT14=\nYEAR: 1938
EXTT15=\nYEAR: 1935
EXTT16=\nYEAR: 1939
EXTT17=\nYEAR: 1934
EXTT18=\nYEAR: 1948
EXTT19=\nYEAR: 1948
EXTT20=\nGENRE: Western Swing\nYEAR: 1936
EXTT21=\nGENRE: Western Swing\nYEAR: 1940
EXTT22=\nYEAR: 1941
EXTT23=\nYEAR: 1943
EXTT24=\nYEAR: 1940
PLAYORDER=
